inDegrees=no
num_controls=7
num_derivatives=13
num_iterations=117
num_multipliers=7
num_parameters=0
num_slacks=7
num_states=26
objective=0.477108
objective_accelerations=0.044613
objective_balance=0.003657
objective_effort=0.040804
objective_height=0.382369
objective_ligament=0.005664
solver_duration=1569.967617
status=Solve_Succeeded
success=true
DataType=double
version=3
OpenSimVersion=4.5
endheader
time	/jointset/ground_pelvis/pelvis_tilt/value	/jointset/ground_pelvis/pelvis_tx/value	/jointset/ground_pelvis/pelvis_ty/value	/jointset/hip_l/hip_flexion_l/value	/jointset/hip_l/hip_adduction_l/value	/jointset/hip_l/hip_rotation_l/value	/jointset/back/lumbar_extension/value	/jointset/patellofemoral_l/patellar_flexion_l/value	/jointset/knee_l/knee_flexion_l/value	/jointset/knee_l/knee_adduction_l/value	/jointset/knee_l/knee_rotation_l/value	/jointset/ankle_l/ankle_angle_l/value	/jointset/subtalar_l/subtalar_angle_l/value	/jointset/ground_pelvis/pelvis_tilt/speed	/jointset/ground_pelvis/pelvis_tx/speed	/jointset/ground_pelvis/pelvis_ty/speed	/jointset/hip_l/hip_flexion_l/speed	/jointset/hip_l/hip_adduction_l/speed	/jointset/hip_l/hip_rotation_l/speed	/jointset/back/lumbar_extension/speed	/jointset/patellofemoral_l/patellar_flexion_l/speed	/jointset/knee_l/knee_flexion_l/speed	/jointset/knee_l/knee_adduction_l/speed	/jointset/knee_l/knee_rotation_l/speed	/jointset/ankle_l/ankle_angle_l/speed	/jointset/subtalar_l/subtalar_angle_l/speed	/forceset/tau_hip_flexion_l	/forceset/tau_hip_adduction_l	/forceset/tau_hip_rotation_l	/forceset/tau_knee_flexion_l	/forceset/tau_ankle_angle_l	/forceset/tau_subtalar_angle_l	/forceset/tau_lumbar_extension	lambda_cid13_p0	lambda_cid13_p1	lambda_cid13_p2	lambda_cid13_p3	lambda_cid13_p4	lambda_cid13_p5	lambda_cid14_p0	/jointset/ground_pelvis/pelvis_tilt/accel	/jointset/ground_pelvis/pelvis_tx/accel	/jointset/ground_pelvis/pelvis_ty/accel	/jointset/hip_l/hip_flexion_l/accel	/jointset/hip_l/hip_adduction_l/accel	/jointset/hip_l/hip_rotation_l/accel	/jointset/back/lumbar_extension/accel	/jointset/patellofemoral_l/patellar_flexion_l/accel	/jointset/knee_l/knee_flexion_l/accel	/jointset/knee_l/knee_adduction_l/accel	/jointset/knee_l/knee_rotation_l/accel	/jointset/ankle_l/ankle_angle_l/accel	/jointset/subtalar_l/subtalar_angle_l/accel	gamma_cid13_p0	gamma_cid13_p1	gamma_cid13_p2	gamma_cid13_p3	gamma_cid13_p4	gamma_cid13_p5	gamma_cid14_p0
1	-0.1130429988745609	-0.05959723357390177	0.680370460242968	1.335747817293029	-0.327826272595876	0.07400029093296513	-0.9599307485058797	1.401994614976005	1.401994614975904	-0.06595266851060154	-0.1745199402339715	0.2771753936846594	0.06428815797101504	0.1031712181511004	0.02564031176856027	0.06984934672763289	-0.2977368688362491	-0.007452674325802762	-0.06491508120019468	-0.0001859407897748692	-0.1591536931287771	-0.1591536931287771	-0.00175993169926561	-5.951390078055542e-05	0.02672197430916444	0.002976873260312595	-0.3765636820385047	0.02817518892617647	0.001267588357053279	-0.3745572972535169	0.04101500873130767	0.0168474013572779	0.4275594885591731	-38.5687131593747	1.315036003030207	-2.809956111262087	14.54568326125676	-800.489590165482	-59.0398922597082	-0.04152251902333511	0.8259225890365426	-0.02124573314254875	1.55240358575196	-4.982726517187356	-0.1302425376904079	-1.672108578853077	0.02678404361430043	-5.022394882898257	-5.022394882899736	-0.3527607975701683	-0.01182038342513252	-1.222238388979839	-0.6823586964033579	-9.008605040453516e-09	2.081174405548603e-08	6.380693548150881e-08	7.11315064761738e-09	-2.374732939240792e-08	1.255055121337835e-07	-1.650176089971236e-08
1.01	-0.1119703042710638	-0.05934183409394222	0.6811463668142477	1.332522100929018	-0.3279065565749236	0.07326670705595738	-0.9599306817059183	1.400152323416546	1.400152323416509	-0.06598598775944707	-0.1745201889570719	0.2773816173992804	0.06428487496580514	0.1113732893759013	0.02544628470989763	0.0853214104430212	-0.3473926750036779	-0.008594405324855434	-0.0817942107316838	0.0002113526928480361	-0.2092982601146091	-0.2092982601146298	-0.004901736944852212	9.452178324305458e-06	0.01451064335694297	-0.003625981248220528	-0.3757347628333885	0.02840654349552457	0.001192495036457071	-0.3743416342360434	0.04093940199746674	0.01695280115704331	0.4271616656345123	-38.55659354815012	1.258738296683416	-2.791385250199039	14.40199600171763	-800.1053110579599	-59.07144705436697	-0.04155695932253128	0.8181854257830119	-0.01747313791502264	1.543018070774691	-4.954951152368584	-0.1046887096494171	-1.694710100110447	0.04800971972555364	-5.009529245913818	-5.009529245915844	-0.294574173805046	0.01623027236308333	-1.222399357198565	-0.6481379345513885	-1.604969800331709e-08	1.387157584777315e-08	9.298137177328017e-08	1.48287054443474e-08	-3.058525077092157e-08	1.456587399382099e-07	-2.275305899111954e-08
1.02	-0.1108154217480063	-0.05908817327370659	0.6820766760839497	1.328800237806158	-0.3279979679296896	0.07236455289167074	-0.9599262804228649	1.39780877785933	1.397808777859362	-0.06605066181789977	-0.1745197529856268	0.2774653640226078	0.06421578559421535	0.1196088020639533	0.02529257982377735	0.1007298864121039	-0.396966220605019	-0.009678149469376828	-0.0986291386557189	0.0006809549410514906	-0.2594044926799688	-0.2594044926799975	-0.00803089362052461	7.742500881989503e-05	0.002226556050509406	-0.01018440001567897	-0.3749058436282936	0.0286378980648705	0.001117401715854198	-0.3741259712185732	0.04086379526362748	0.01705820095680671	0.4267638427098298	-38.55576979727841	1.205237264353747	-2.774195690846945	14.31729946943475	-799.867355356628	-59.07952070004057	-0.0415922077551196	0.8326108816867634	-0.01318129863407419	1.539686036490844	-4.966274403969801	-0.1186451667841537	-1.663268257362275	0.04124579673008819	-5.014727998803817	-5.014727998802726	-0.3502310835873277	-0.01201903314698966	-1.236789659822256	-0.6734715481884223	-2.277706346440481e-08	4.851421076985959e-09	1.211148943598154e-07	2.064693920990588e-08	-3.668746539219824e-08	1.649079113262139e-07	-2.930369813978176e-08
1.03	-0.1095784298799649	-0.05883559265358151	0.6831606865376946	1.324583337719107	-0.3280999215594347	0.07129436030856499	-0.9599148461206317	1.39496458747645	1.394964587476508	-0.06614656568158997	-0.1745186469953976	0.2774262862368539	0.06408152278959643	0.127754903066194	0.02525608131996787	0.1160553854399089	-0.4463736885378463	-0.01070479387465671	-0.1153974206117682	0.001814776067892406	-0.3094054676540299	-0.3094054676540312	-0.0111473147466036	0.0001377607388763976	-0.01001632945846654	-0.01664517894762602	-0.3755680720487694	0.02899868261286517	0.00099697331769015	-0.3732602135072416	0.04056701887327025	0.01729106307104467	0.428123824756493	-38.64555926802031	1.094093498228588	-2.72708273235183	13.78701185300938	-800.403711241487	-59.08037110459399	-0.04163238684498457	0.800406873806047	0.006001765882654024	1.526450408011852	-4.921970600510663	-0.09352056494030002	-1.681842982673515	0.180780856516709	-4.988557599184398	-4.98855759918094	-0.2919813544094675	0.01419284524586954	-1.214172112041732	-0.6289505036031561	-2.950122762445399e-08	-4.189958046485672e-09	1.492377953779298e-07	2.644581255677891e-08	-4.278217280166637e-08	1.841478576487442e-07	-3.585739178902822e-08
